<mxfile host="app.diagrams.net" agent="Mozilla/5.0 (Windows NT 10.0; Win64; x64) AppleWebKit/537.36 (KHTML, like Gecko) Chrome/130.0.0.0 Safari/537.36" version="25.0.1">
  <diagram name="Trang-1" id="bNLBso1tWYlsYXi9MugW">
    <mxGraphModel dx="1434" dy="746" grid="1" gridSize="10" guides="1" tooltips="1" connect="1" arrows="1" fold="1" page="1" pageScale="1" pageWidth="827" pageHeight="1169" math="0" shadow="0">
      <root>
        <mxCell id="0" />
        <mxCell id="1" parent="0" />
        <mxCell id="pQL7ANRHVBBFmNyFudtX-13" value="" style="rounded=0;whiteSpace=wrap;html=1;" vertex="1" parent="1">
          <mxGeometry x="60" y="280" width="540" height="450" as="geometry" />
        </mxCell>
        <mxCell id="pQL7ANRHVBBFmNyFudtX-6" value="" style="rounded=0;whiteSpace=wrap;html=1;" vertex="1" parent="1">
          <mxGeometry x="90" y="300" width="440" height="370" as="geometry" />
        </mxCell>
        <mxCell id="pQL7ANRHVBBFmNyFudtX-5" value="" style="rounded=0;whiteSpace=wrap;html=1;dashed=1;" vertex="1" parent="1">
          <mxGeometry x="140" y="310" width="190" height="300" as="geometry" />
        </mxCell>
        <mxCell id="pQL7ANRHVBBFmNyFudtX-10" style="edgeStyle=orthogonalEdgeStyle;rounded=0;orthogonalLoop=1;jettySize=auto;html=1;entryX=0;entryY=0.5;entryDx=0;entryDy=0;" edge="1" parent="1" source="pQL7ANRHVBBFmNyFudtX-1" target="pQL7ANRHVBBFmNyFudtX-7">
          <mxGeometry relative="1" as="geometry">
            <Array as="points">
              <mxPoint x="350" y="375" />
              <mxPoint x="350" y="450" />
            </Array>
          </mxGeometry>
        </mxCell>
        <mxCell id="pQL7ANRHVBBFmNyFudtX-1" value="App: frontend" style="rounded=0;whiteSpace=wrap;html=1;" vertex="1" parent="1">
          <mxGeometry x="175" y="330" width="120" height="90" as="geometry" />
        </mxCell>
        <mxCell id="pQL7ANRHVBBFmNyFudtX-11" style="edgeStyle=orthogonalEdgeStyle;rounded=0;orthogonalLoop=1;jettySize=auto;html=1;entryX=0;entryY=0.5;entryDx=0;entryDy=0;" edge="1" parent="1" source="pQL7ANRHVBBFmNyFudtX-2" target="pQL7ANRHVBBFmNyFudtX-7">
          <mxGeometry relative="1" as="geometry">
            <Array as="points">
              <mxPoint x="350" y="500" />
              <mxPoint x="350" y="450" />
            </Array>
          </mxGeometry>
        </mxCell>
        <mxCell id="pQL7ANRHVBBFmNyFudtX-2" value="App: frontend" style="rounded=0;whiteSpace=wrap;html=1;" vertex="1" parent="1">
          <mxGeometry x="175" y="455" width="120" height="90" as="geometry" />
        </mxCell>
        <mxCell id="pQL7ANRHVBBFmNyFudtX-3" value="Pod 1" style="text;html=1;align=center;verticalAlign=middle;resizable=0;points=[];autosize=1;strokeColor=none;fillColor=none;" vertex="1" parent="1">
          <mxGeometry x="175" y="400" width="50" height="30" as="geometry" />
        </mxCell>
        <mxCell id="pQL7ANRHVBBFmNyFudtX-4" value="Pod 2" style="text;html=1;align=center;verticalAlign=middle;resizable=0;points=[];autosize=1;strokeColor=none;fillColor=none;" vertex="1" parent="1">
          <mxGeometry x="175" y="520" width="50" height="30" as="geometry" />
        </mxCell>
        <mxCell id="pQL7ANRHVBBFmNyFudtX-7" value="Service" style="rounded=0;whiteSpace=wrap;html=1;" vertex="1" parent="1">
          <mxGeometry x="390" y="420" width="120" height="60" as="geometry" />
        </mxCell>
        <mxCell id="pQL7ANRHVBBFmNyFudtX-8" value="Deployment" style="text;html=1;align=center;verticalAlign=middle;whiteSpace=wrap;rounded=0;" vertex="1" parent="1">
          <mxGeometry x="140" y="585" width="70" height="30" as="geometry" />
        </mxCell>
        <mxCell id="pQL7ANRHVBBFmNyFudtX-12" value="Minikube" style="text;html=1;align=center;verticalAlign=middle;whiteSpace=wrap;rounded=0;" vertex="1" parent="1">
          <mxGeometry x="90" y="640" width="60" height="30" as="geometry" />
        </mxCell>
        <mxCell id="pQL7ANRHVBBFmNyFudtX-14" value="Local environment" style="text;html=1;align=center;verticalAlign=middle;whiteSpace=wrap;rounded=0;" vertex="1" parent="1">
          <mxGeometry x="60" y="700" width="80" height="30" as="geometry" />
        </mxCell>
      </root>
    </mxGraphModel>
  </diagram>
</mxfile>
